<svg xmlns="http://www.w3.org/2000/svg" viewBox="0 0 512 512">
  <g data-name="Layer 2">
    <g data-name="E425, History, log, manuscript" fill="none" stroke="#000" stroke-linecap="round" stroke-linejoin="round" stroke-width="20">
      <path d="M75.11 117h0a21.34 21.34 0 01-21.28-21.43V31.39A21.34 21.34 0 0175.11 10h0a21.34 21.34 0 0121.28 21.39v64.18A21.34 21.34 0 0175.11 117z"/>
      <path d="M96.39 31.39h319.22v64.17H96.39zm0 64.18h319.22v320.87H96.39zM34.34 39.08h19.49v48.8h0-19.49A24.34 24.34 0 0110 63.54v-.13a24.34 24.34 0 0124.34-24.33z"/>
      <path d="M436.89 117h0a21.34 21.34 0 0021.28-21.39V31.39A21.34 21.34 0 00436.89 10h0a21.34 21.34 0 00-21.28 21.39v64.18A21.34 21.34 0 00436.89 117z"/>
      <path d="M477.66 87.88h-19.49 0v-48.8h19.49A24.34 24.34 0 01502 63.42v.13a24.34 24.34 0 01-24.34 24.34zM75.11 395h0a21.34 21.34 0 00-21.28 21.39v64.18A21.34 21.34 0 0075.11 502h0a21.34 21.34 0 0021.28-21.39v-64.18A21.34 21.34 0 0075.11 395z"/>
      <path d="M96.39 416.43h319.22v64.17H96.39zm-62.05 7.69h19.49v48.8h0-19.49A24.34 24.34 0 0110 448.58v-.13a24.34 24.34 0 0124.34-24.33z"/>
      <path d="M436.89 395h0a21.34 21.34 0 0121.28 21.39v64.18A21.34 21.34 0 01436.89 502h0a21.34 21.34 0 01-21.28-21.39v-64.18A21.34 21.34 0 01436.89 395z"/>
      <path d="M477.66 472.92h-19.49 0v-48.8h19.49A24.34 24.34 0 01502 448.46v.13a24.34 24.34 0 01-24.34 24.34zM143.41 140.11H256m-112.59 46.36h227.85m-227.85 46.35h227.85m-227.85 46.36h227.85m-227.85 46.35h227.85M256 371.89h115.26"/>
    </g>
  </g>
</svg>
