<svg xmlns="http://www.w3.org/2000/svg" viewBox="0 0 275 170">
  <path d="M33.1 69.2c0-4.8 2.4-6.3 5.8-6.3h12.9c8.5 0 10 6.3 10 13.5s-1.6 13.7-10 13.7H40.6V105h-7.4V69.2zM48 83.8c5.1 0 6-2.5 6-7.3s-1-7.2-6-7.2h-4.7c-2.3 0-2.8.6-2.8 3v11.5H48z" fill="#145b8f"/>
  <rect x="65.5" y="62.4" width="7.6" height="7.5" rx="3" ry="3" fill="#e5000f"/>
  <path fill="#145b8f" d="M66.1 73.1h6.6V105h-6.6zm11.7 5.4c0-3.6 1.7-5.4 5.1-5.4h21.4c6.8 0 11.6 2.5 11.6 10.9v21h-6.6V85.9c0-4.8-1.7-7.3-6.3-7.3h-2.9v26.5h-6.6V78.6h-7.4c-1.1 0-1.7.6-1.7 1.8v24.7h-6.6V78.6zm44.1-9.3c0-4.8 2.4-6.3 5.8-6.3h12.9c8.5 0 10 6.3 10 13.5s-1.6 13.7-10 13.7h-11.2V105H122V69.2zm14.9 14.6c5.1 0 6-2.5 6-7.3s-1-7.2-6-7.2h-4.7c-2.3 0-2.8.6-2.8 3v11.5h7.5zm18 1.3c0-8.5 3.5-12 11.5-12h2.8v5.4H168c-5.3 0-6.6 2.8-6.6 8.5v18h-6.6V85.2zM182 105c-9 0-11.3-5.8-11.3-16s2.6-16.2 12.2-16.2S195 75.2 195 85.4s-1.2 6-4.6 6h-12.9c0 4.8 1.4 8.2 6.4 8.2H194v5.4h-12.1zm4.7-19c1.3 0 1.5-1 1.5-1.9 0-4.2-1.9-6-5.3-6s-5.4 2.4-5.4 7.8h9.2zm11.9 13.5h12.3c1.4 0 2.8-.2 2.8-2.3 0-3.4-2.5-3.8-5.1-5.1l-3.5-1.7c-6-2.9-6.8-5.2-6.8-9.7s2.5-7.7 8.6-7.7h12.3v5.4h-11.3c-2.1 0-3.2 0-3.2 2.4s1.4 3.5 3.6 4.6l4.2 2c5.1 2.5 8.2 3.8 8.2 9.9s-1.6 7.5-7.3 7.5h-14.6v-5.4zm25.2 0h12.3c1.4 0 2.8-.2 2.8-2.3 0-3.4-2.5-3.8-5.1-5.1l-3.5-1.7c-6-2.9-6.8-5.2-6.8-9.7s2.5-7.7 8.6-7.7h12.3v5.4h-11.3c-2.1 0-3.2 0-3.2 2.4s1.4 3.5 3.6 4.6l4.2 2c5.1 2.5 8.2 3.8 8.2 9.9s-1.6 7.5-7.3 7.5H224v-5.4z"/>
</svg>
